<svg viewBox="0 0 20 20" fill="none" xmlns="http://www.w3.org/2000/svg">
<g clip-path="url(#clip0_8159_18)">
<path opacity="0.4" d="M10 19.1667C8.18705 19.1667 6.41477 18.6291 4.90732 17.6218C3.39987 16.6146 2.22495 15.183 1.53115 13.508C0.837346 11.833 0.655815 9.98987 1.00951 8.21172C1.36321 6.43356 2.23625 4.80021 3.51823 3.51823C4.80021 2.23625 6.43356 1.36321 8.21172 1.00951C9.98987 0.655815 11.833 0.837346 13.508 1.53115C15.183 2.22495 16.6146 3.39987 17.6218 4.90732C18.6291 6.41477 19.1667 8.18705 19.1667 10C19.1641 12.4304 18.1975 14.7604 16.479 16.479C14.7604 18.1975 12.4304 19.1641 10 19.1667ZM10 2.36116C8.48921 2.36116 7.01231 2.80917 5.7561 3.64854C4.4999 4.48791 3.5208 5.68094 2.94263 7.07677C2.36446 8.47259 2.21319 10.0085 2.50793 11.4903C2.80268 12.9721 3.53022 14.3332 4.59853 15.4016C5.66685 16.4699 7.02797 17.1974 8.50977 17.4922C9.99157 17.7869 11.5275 17.6356 12.9233 17.0575C14.3191 16.4793 15.5122 15.5002 16.3515 14.244C17.1909 12.9878 17.6389 11.5109 17.6389 10C17.6367 7.97477 16.8312 6.03308 15.3991 4.60099C13.967 3.1689 12.0253 2.36338 10 2.36116Z" fill="currentColor"/>
<path d="M19.1667 10H17.6389C17.6367 7.97476 16.8311 6.03307 15.3991 4.60099C13.967 3.1689 12.0253 2.36338 10 2.36115V0.833374C12.4303 0.836003 14.7604 1.80262 16.4789 3.52113C18.1974 5.23964 19.164 7.56969 19.1667 10Z" fill="#008FE5"/>
</g>
<defs>
<clipPath id="clip0_8159_18">
<rect width="20" height="20" fill="white"/>
</clipPath>
</defs>
</svg>
